inDegrees=yes
name=ik_lifting_orientations
DataType=double
version=3
OpenSimVersion=4.5-2024-01-10-34fd6af
endheader
time	pelvis_tilt	pelvis_list	pelvis_rotation	pelvis_tx	pelvis_ty	pelvis_tz	hip_flexion_r	hip_adduction_r	hip_rotation_r	knee_angle_r	knee_angle_r_beta	ankle_angle_r	subtalar_angle_r	mtp_angle_r	hip_flexion_l	hip_adduction_l	hip_rotation_l	knee_angle_l	knee_angle_l_beta	ankle_angle_l	subtalar_angle_l	mtp_angle_l	lumbar_extension	lumbar_bending	lumbar_rotation	arm_flex_r	arm_add_r	arm_rot_r	elbow_flex_r	pro_sup_r	wrist_flex_r	wrist_dev_r	arm_flex_l	arm_add_l	arm_rot_l	elbow_flex_l	pro_sup_l	wrist_flex_l	wrist_dev_l
2.03	1.643572568128108	1.728498021273783	-87.13369788628178	0	0.9399999998679526	0	45.18338319079335	-10.14434860798172	0	60.4417930752039	1.054908294971417	-5.036249843176399	0	0	45.18338319079335	-10.14434860798172	0	60.4417930752039	1.054908294971417	-5.036249843176399	0	0	-5.322219381856642	4.709067284832464	7.420924866838266	20.27066654880381	-54.97577374102909	9.112989694579625	147.2772779615487	0.6420232521487794	0	0	0	-11.94937696159207	0	89.37933327717339	0.6420232521487794	0	0
2.04	1.770335397488385	1.881026960791996	-86.72815337166912	0	0.9399999998679526	0	45.1828956307706	-10.14301602373008	0	60.44087092191218	1.054892200360268	-5.035814453483997	0	0	45.1828956307706	-10.14301602373008	0	60.44087092191218	1.054892200360268	-5.035814453483997	0	0	-4.914124903675488	4.417257237866091	6.592973886004326	23.77744029366623	-54.18426317588411	12.33006143456222	143.8294473935602	0.6408347206897603	0	0	0	-11.95353620281846	0	89.38048194591387	0.6408347206897603	0	0
2.05	1.75527617725493	1.865461726123709	-86.50724855158164	0	0.9399999998679526	0	45.18244334577067	-10.14178877082044	0	60.44001463943737	1.054877255411756	-5.035414659778355	0	0	45.18244334577067	-10.14178877082044	0	60.44001463943737	1.054877255411756	-5.035414659778355	0	0	-4.685140100720457	4.284814753773293	6.15882659526174	27.25543586782775	-53.2032272607205	15.398744462175	140.0980282005814	0.6397311114956133	0	0	0	-11.9574006192971	0	89.38154854065017	0.6397311114956133	0	0
2.06	1.834296758185945	1.940829390031593	-86.43023552773258	0	0.9399999998679526	0	45.18203229287173	-10.14068222005529	0	60.43923502590273	1.054863648588683	-5.035055268937343	0	0	45.18203229287173	-10.14068222005529	0	60.43923502590273	1.054863648588683	-5.035055268937343	0	0	-4.508518462478422	4.124919973303402	5.990419754228816	30.67284922089948	-52.19444264036645	18.32259232545795	136.2958403795682	0.6387268555356679	0	0	0	-11.96092017426334	0	89.38251911441959	0.6387268555356679	0	0
2.07	1.904700143175066	2.039542621696607	-86.3014197247436	0	0.9399999998679526	0	45.18165497297535	-10.13967254242959	0	60.43851877898939	1.054851147721788	-5.034728135675888	0	0	45.18165497297535	-10.13967254242959	0	60.43851877898939	1.054851147721788	-5.034728135675888	0	0	-4.312717728558463	3.975563025114515	5.780034422673641	33.84252935747712	-51.12271700925108	21.02776427288485	132.5612318854214	0.6378042582038622	0	0	0	-11.96415524485404	0	89.38341076835505	0.6378042582038622	0	0
2.08	2.008236506361898	2.147863830511435	-86.22688576858505	0	0.9399999998679526	0	45.1813312858101	-10.138811867759	0	60.43790332314435	1.054840405990891	-5.034449929139353	0	0	45.1813312858101	-10.138811867759	0	60.43790332314435	1.054840405990891	-5.034449929139353	0	0	-4.114307404781647	3.779227421770298	5.682742632290311	36.68300352163423	-49.96870906011586	23.39478386430475	128.8619339915402	0.6370119516893141	0	0	0	-11.96693557527943	0	89.38417650136275	0.6370119516893141	0	0
2.09	2.037638467486543	2.181905070485826	-86.07957770390787	0	0.9399999998679526	0	45.18105895328419	-10.13809321901337	0	60.43738385126596	1.054831339496242	-5.034218186336201	0	0	45.18105895328419	-10.13809321901337	0	60.43738385126596	1.054831339496242	-5.034218186336201	0	0	-4.130627161209548	3.824269514254198	5.454998600542853	39.51093981944096	-48.8801658249127	25.74118822262534	125.2998921355783	0.636344269496797	0	0	0	-11.96928152690073	0	89.38482178988646	0.636344269496797	0	0
2.1	2.135951610645297	2.283230823253033	-86.16194728189686	0	0.9399999998679526	0	45.18072490557626	-10.1372183354992	0	60.4367453133196	1.054820194906679	-5.033936821398156	0	0	45.18072490557626	-10.1372183354992	0	60.4367453133196	1.054820194906679	-5.033936821398156	0	0	-4.114629037323855	3.784712697551524	5.462048296554341	42.31779927218346	-47.60078636298043	28.04012847846178	121.6029351523852	0.6355242424062936	0	0	0	-11.9721652987837	0	89.38561431375922	0.6355242424062936	0	0
2.11	2.159117648959521	2.306664552587723	-86.01377269886756	0	0.9399999998679526	0	45.1804532588575	-10.13650722953235	0	60.43622700993314	1.054811148806061	-5.03370831530963	0	0	45.1804532588575	-10.13650722953235	0	60.43622700993314	1.054811148806061	-5.03370831530963	0	0	-4.13457894542233	3.857348132454165	5.309799385858422	44.99120254620584	-46.21669256834725	30.2193439626289	117.799433676955	0.6348576722600704	0	0	0	-11.97450839859143	0	89.38625852754163	0.6348576722600704	0	0
2.12	2.142256925269838	2.295627804021489	-86.03389791841232	0	0.9399999998679526	0	45.18017542146349	-10.1357875799851	0	60.43569411686344	1.054801848067434	-5.033477772544991	0	0	45.18017542146349	-10.1357875799851	0	60.43569411686344	1.054801848067434	-5.033477772544991	0	0	-4.242912894494627	3.962734735386594	5.137530828464533	47.59548435123634	-44.630358013256	32.32204259718899	113.3750248791154	0.6341742577561891	0	0	0	-11.97691529819317	0	89.3869190207454	0.6341742577561891	0	0
2.13	2.127685861489785	2.286948203892771	-86.06169609473777	0	0.9399999998679526	0	45.17991433866096	-10.13510850220428	0	60.43519576191334	1.054793150132711	-5.03326016274506	0	0	45.17991433866096	-10.13510850220428	0	60.43519576191334	1.054793150132711	-5.03326016274506	0	0	-4.371808516341567	4.125388267737132	4.871208625025127	50.02309615790204	-43.11562017473728	34.48419290517199	109.1944385140827	0.633533093506611	0	0	0	-11.97917023239813	0	89.38753868073698	0.633533093506611	0	0
2.14	2.064478903841004	2.215106447945995	-86.18880503348329	0	0.9399999998679526	0	45.17956036468538	-10.13418724319286	0	60.43452266970688	1.054781402457539	-5.032965224512234	0	0	45.17956036468538	-10.13418724319286	0	60.43452266970688	1.054781402457539	-5.032965224512234	0	0	-4.574208964292379	4.321844318813472	4.848986106904436	52.27160558420276	-41.74625155948172	36.55842125223965	104.6487470949817	0.6326647510541893	0	0	0	-11.98222086224046	0	89.38837789950892	0.6326647510541893	0	0
2.15	1.929097872912766	2.052096242838623	-86.54536583979896	0	0.9399999998679526	0	45.17922570827381	-10.13332071742019	0	60.433885995396	1.054770290394551	-5.03268840634477	0	0	45.17922570827381	-10.13332071742019	0	60.433885995396	1.054770290394551	-5.03268840634477	0	0	-4.91642027596999	4.599103960046476	5.094932987574467	54.48972708176171	-40.35296795029376	38.56743901364488	99.96589938054277	0.6318432737485474	0	0	0	-11.98510795655094	0	89.38917182496911	0.6318432737485474	0	0
2.16	1.810845455028972	1.911888300521637	-86.74197495001486	0	0.9399999998679526	0	45.17893597968074	-10.13257504864953	0	60.43333379668849	1.054760652708979	-5.032450707797134	0	0	45.17893597968074	-10.13257504864953	0	60.43333379668849	1.054760652708979	-5.032450707797134	0	0	-5.313659953048623	4.946970694736939	5.38094975950003	56.75790509135718	-39.11996590591968	40.47794647947	95.48886554871596	0.6311313111007955	0	0	0	-11.98761213403205	0	89.3898599088332	0.6311313111007955	0	0
2.17	1.673354339705507	1.76661588969763	-87.03791403761154	0	0.9399999998679526	0	45.17859700947682	-10.13170430945074	0	60.43268844078282	1.054749389123578	-5.032173475707686	0	0	45.17859700947682	-10.13170430945074	0	60.43268844078282	1.054749389123578	-5.032173475707686	0	0	-5.784822550746849	5.336990471039494	5.881349011939294	59.04744378928901	-37.93252051686567	42.46919090042059	91.01053027487298	0.6302984101847567	0	0	0	-11.99054118293987	0	89.39066487477342	0.6302984101847567	0	0
2.18	1.584288493439824	1.668979833197947	-87.27624251238862	0	0.9399999998679526	0	45.17830987060195	-10.13097083167278	0	60.43214102174199	1.054739834858928	-5.031940434357927	0	0	45.17830987060195	-10.13097083167278	0	60.43214102174199	1.054739834858928	-5.031940434357927	0	0	-6.253184312491168	5.699242449657969	6.455871497877682	61.10230583243425	-36.89071097926119	44.14648939207318	86.65242801687992	0.6295922151350142	0	0	0	-11.99302627185628	0	89.39134738448942	0.6295922151350142	0	0
2.19	1.468476497081157	1.546415504105272	-87.60905234067953	0	0.9399999998679526	0	45.17819998654868	-10.13069088430792	0	60.43193092560413	1.054736167989576	-5.031851517341578	0	0	45.17819998654868	-10.13069088430792	0	60.43193092560413	1.054736167989576	-5.031851517341578	0	0	-6.738335682049965	6.042335001816956	7.031614418738859	62.92738708332032	-35.77519832673313	45.62648268558122	82.15614013488357	0.629321650673103	0	0	0	-11.99397941345649	0	89.39160887439368	0.629321650673103	0	0
2.2	1.355716991467722	1.406963766041389	-88.01553423648461	0	0.9399999998679526	0	45.17807590050855	-10.13037507371049	0	60.43169373927786	1.054732028307242	-5.03175126428517	0	0	45.17807590050855	-10.13037507371049	0	60.43169373927786	1.054732028307242	-5.03175126428517	0	0	-7.197735729551255	6.347017018076807	7.736840510107577	64.40683778139586	-34.68914233639951	46.90640067453553	78.11458167643595	0.6290161059498913	0	0	0	-11.99505577052238	0	89.39190417134431	0.6290161059498913	0	0
